<svg width="150" height="152" viewBox="0 0 150 152" fill="none" xmlns="http://www.w3.org/2000/svg">
<path d="M135.352 0H14.6484C6.55833 0 0 6.64577 0 14.8438V137.156C0 145.354 6.55833 152 14.6484 152H135.352C143.442 152 150 145.354 150 137.156V14.8438C150 6.64577 143.442 0 135.352 0Z" fill="#8DAA92"/>
<path fill-rule="evenodd" clip-rule="evenodd" d="M92.8532 120.954V135.816C95.2374 137.054 98.0572 137.983 101.313 138.602C104.568 139.222 107.999 139.531 111.606 139.531C115.121 139.531 118.461 139.191 121.625 138.509C124.788 137.828 127.562 136.706 129.947 135.142C132.331 133.579 134.218 131.535 135.609 129.012C137 126.488 137.695 123.369 137.695 119.654C137.695 116.96 137.298 114.599 136.503 112.571C135.708 110.543 134.562 108.74 133.064 107.161C131.567 105.582 129.771 104.165 127.677 102.911C125.583 101.657 123.222 100.473 120.593 99.3581C118.667 98.553 116.94 97.7713 115.412 97.0128C113.883 96.254 112.584 95.48 111.514 94.6907C110.445 93.901 109.619 93.065 109.039 92.1827C108.458 91.3 108.167 90.3017 108.167 89.1869C108.167 88.1653 108.427 87.2441 108.947 86.4236C109.467 85.603 110.2 84.8988 111.148 84.3104C112.095 83.7223 113.257 83.2654 114.632 82.9403C116.008 82.6153 117.536 82.4529 119.217 82.4529C120.44 82.4529 121.731 82.5458 123.092 82.7313C124.452 82.9172 125.82 83.2037 127.196 83.5905C128.571 83.9776 129.908 84.4654 131.208 85.0535C132.507 85.6419 133.706 86.3229 134.807 87.0972V73.2106C132.575 72.3437 130.138 71.7012 127.494 71.2832C124.85 70.8652 121.816 70.6562 118.392 70.6562C114.907 70.6562 111.606 71.0357 108.488 71.7942C105.371 72.5527 102.627 73.7369 100.258 75.3469C97.8891 76.9571 96.017 79.0082 94.6415 81.5008C93.266 83.9931 92.5781 86.9731 92.5781 90.4409C92.5781 94.8685 93.8391 98.6459 96.3609 101.773C98.8825 104.9 102.711 107.547 107.846 109.715C109.864 110.551 111.744 111.371 113.486 112.176C115.228 112.981 116.734 113.817 118.002 114.684C119.271 115.551 120.272 116.496 121.006 117.517C121.739 118.539 122.106 119.7 122.106 121.001C122.106 121.96 121.877 122.85 121.418 123.671C120.96 124.492 120.264 125.203 119.332 125.807C118.4 126.411 117.238 126.883 115.847 127.224C114.456 127.565 112.829 127.735 110.964 127.735C107.785 127.735 104.637 127.17 101.519 126.039C98.4012 124.91 95.5125 123.214 92.8532 120.954ZM68.1973 84.3368H87.0117V72.1406H34.5703V84.3368H53.2928V138.641H68.1973V84.3368Z" fill="white"/>
</svg>
