<svg width="95" height="170" viewBox="0 0 95 170" fill="none" xmlns="http://www.w3.org/2000/svg">
<path d="M65.1722 18.9477C56.6332 10.4824 49.28 1.88485 47.7778 0.0992026C47.6196 -0.0330675 47.3824 -0.0330675 47.2243 0.0992026C45.722 1.88485 38.369 10.4824 29.8298 18.9477C-43.4639 97.0528 41.3735 149.763 41.3735 149.763L42.085 150.16C42.7175 158.294 44.2988 170 44.2988 170H47.4615H50.6241C50.6241 170 52.2054 158.36 52.838 150.16L53.5495 149.697C53.6285 149.763 138.466 97.0528 65.1722 18.9477ZM47.4615 148.638C47.4615 148.638 43.6664 145.927 42.6385 144.538V144.406L47.2243 59.3561C47.2243 59.0916 47.6987 59.0916 47.6987 59.3561L52.2845 144.406V144.538C51.2566 145.927 47.4615 148.638 47.4615 148.638Z" fill="#8DAA92"/>
</svg>
