<svg width="150" height="152" viewBox="0 0 150 152" fill="none" xmlns="http://www.w3.org/2000/svg">
<path d="M37.5 50.6667C42.5 16.8889 55 0 75 0C105 0 108.75 38 123.75 44.3333C133.75 48.5556 142.5 42.2222 150 25.3333C145 59.1111 132.5 76 112.5 76C82.5 76 78.75 38 63.75 31.6667C53.75 27.4444 45 33.7778 37.5 50.6667ZM0 126.667C5 92.8889 17.5 76 37.5 76C67.5 76 71.25 114 86.25 120.333C96.25 124.556 105 118.222 112.5 101.333C107.5 135.111 95 152 75 152C45 152 41.25 114 26.25 107.667C16.25 103.444 7.5 109.778 0 126.667Z" fill="#8DAA92"/>
</svg>
